<svg xmlns="http://www.w3.org/2000/svg" viewBox="0 0 64 64" width="64" height="64" fill="currentColor" role="img" aria-label="IncidentWise">
  <title>IncidentWise</title>
  <!-- Monochrome: inherits the surrounding text colour. For inline UI use and one-colour print. -->
  <path d="M32 6 L58 54 L6 54 Z"
        fill="none" stroke="currentColor" stroke-width="5.5"
        stroke-linejoin="round" stroke-linecap="round"/>
  <path d="M20.5 34a11.5 11.5 0 0 1 23 0z"/>
  <rect x="16" y="33.2" width="32" height="4.6" rx="2.3"/>
  <path d="M21.5 40.2h21a3 3 0 0 1 3 3v3.6a3 3 0 0 1-3 3h-21a3 3 0 0 1-3-3v-3.6a3 3 0 0 1 3-3zm1.5 2.9a1.2 1.2 0 0 0-1.2 1.2v1.7a1.2 1.2 0 0 0 1.2 1.2h7.4a1.8 1.8 0 0 0 1.6-.9 1.8 1.8 0 0 0 1.6.9H41a1.2 1.2 0 0 0 1.2-1.2v-1.7a1.2 1.2 0 0 0-1.2-1.2h-7.4a1.8 1.8 0 0 0-1.6.9 1.8 1.8 0 0 0-1.6-.9z" fill-rule="evenodd"/>
</svg>
